<svg version="1.1" xmlns="http://www.w3.org/2000/svg" viewBox="0 0 1196 631.4" width="1196" height="631.4"><title>BioSymphony Toolchains</title><desc>Examples of sequence search and annotation, protein design and evaluation, and experiment-design analysis using supplied results.</desc><!-- svg-source:excalidraw --><metadata/><defs><style class="style-fonts">
      </style></defs><rect x="0" y="0" width="1196" height="631.4" fill="#081c31"/><g transform="translate(40 40) rotate(0 175.4951171875 12.649999999999999)"><text x="0" y="18.5904296875" font-family="Helvetica, Segoe UI Emoji" font-size="22px" fill="#70cddd" text-anchor="start" style="white-space: pre;" direction="ltr" dominant-baseline="alphabetic">GeneCluster · Search And Annotate</text></g><g stroke-linecap="round" transform="translate(40 88) rotate(0 123 49)"><path d="M24.5 0 C87.05 0, 149.6 0, 221.5 0 C237.83 0, 246 8.17, 246 24.5 C246 35.21, 246 45.93, 246 73.5 C246 89.83, 237.83 98, 221.5 98 C157.98 98, 94.46 98, 24.5 98 C8.17 98, 0 89.83, 0 73.5 C0 58.41, 0 43.32, 0 24.5 C0 8.17, 8.17 0, 24.5 0" stroke="none" stroke-width="0" fill="#153e53"/><path d="M24.5 0 C86.15 0, 147.81 0, 221.5 0 M24.5 0 C92.8 0, 161.1 0, 221.5 0 M221.5 0 C237.83 0, 246 8.17, 246 24.5 M221.5 0 C237.83 0, 246 8.17, 246 24.5 M246 24.5 C246 36.08, 246 47.65, 246 73.5 M246 24.5 C246 34.81, 246 45.12, 246 73.5 M246 73.5 C246 89.83, 237.83 98, 221.5 98 M246 73.5 C246 89.83, 237.83 98, 221.5 98 M221.5 98 C180.18 98, 138.87 98, 24.5 98 M221.5 98 C149.63 98, 77.77 98, 24.5 98 M24.5 98 C8.17 98, 0 89.83, 0 73.5 M24.5 98 C8.17 98, 0 89.83, 0 73.5 M0 73.5 C0 54.94, 0 36.38, 0 24.5 M0 73.5 C0 58.96, 0 44.42, 0 24.5 M0 24.5 C0 8.17, 8.17 0, 24.5 0 M0 24.5 C0 8.17, 8.17 0, 24.5 0" stroke="#70cddd" stroke-width="1.4" fill="none"/></g><g transform="translate(121.822509765625 107) rotate(0 41.177490234375 10.924999999999997)"><text x="41.177490234375" y="16.055371093749997" font-family="Helvetica, Segoe UI Emoji" font-size="19px" fill="#edf5f4" text-anchor="middle" style="white-space: pre;" direction="ltr" dominant-baseline="alphabetic">MMseqs2</text></g><g transform="translate(96.734375 141) rotate(0 66.265625 9.200000000000003)"><text x="66.265625" y="13.5203125" font-family="Helvetica, Segoe UI Emoji" font-size="16px" fill="#bdd2df" text-anchor="middle" style="white-space: pre;" direction="ltr" dominant-baseline="alphabetic">Search sequences</text></g><g stroke-linecap="round"><g transform="translate(293.5 137) rotate(0 14 0)"><path d="M0 0 C9.41 0, 18.83 0, 28 0 M0 0 C6.21 0, 12.41 0, 28 0" stroke="#ebbe72" stroke-width="1.8" fill="none"/></g><g transform="translate(293.5 137) rotate(0 14 0)"><path d="M14.84 4.79 C19.27 3.18, 23.69 1.57, 28 0 M14.84 4.79 C17.76 3.73, 20.68 2.67, 28 0" stroke="#ebbe72" stroke-width="1.8" fill="none"/></g><g transform="translate(293.5 137) rotate(0 14 0)"><path d="M14.84 -4.79 C19.27 -3.18, 23.69 -1.57, 28 0 M14.84 -4.79 C17.76 -3.73, 20.68 -2.67, 28 0" stroke="#ebbe72" stroke-width="1.8" fill="none"/></g></g><mask/><g stroke-linecap="round" transform="translate(330 88) rotate(0 123 49)"><path d="M24.5 0 C100.7 0, 176.9 0, 221.5 0 C237.83 0, 246 8.17, 246 24.5 C246 42.56, 246 60.61, 246 73.5 C246 89.83, 237.83 98, 221.5 98 C153.32 98, 85.14 98, 24.5 98 C8.17 98, 0 89.83, 0 73.5 C0 62, 0 50.51, 0 24.5 C0 8.17, 8.17 0, 24.5 0" stroke="none" stroke-width="0" fill="#102b45"/><path d="M24.5 0 C74.92 0, 125.33 0, 221.5 0 M24.5 0 C98.5 0, 172.5 0, 221.5 0 M221.5 0 C237.83 0, 246 8.17, 246 24.5 M221.5 0 C237.83 0, 246 8.17, 246 24.5 M246 24.5 C246 35.97, 246 47.44, 246 73.5 M246 24.5 C246 35.81, 246 47.13, 246 73.5 M246 73.5 C246 89.83, 237.83 98, 221.5 98 M246 73.5 C246 89.83, 237.83 98, 221.5 98 M221.5 98 C167.15 98, 112.81 98, 24.5 98 M221.5 98 C153.16 98, 84.82 98, 24.5 98 M24.5 98 C8.17 98, 0 89.83, 0 73.5 M24.5 98 C8.17 98, 0 89.83, 0 73.5 M0 73.5 C0 54.26, 0 35.03, 0 24.5 M0 73.5 C0 54.48, 0 35.46, 0 24.5 M0 24.5 C0 8.17, 8.17 0, 24.5 0 M0 24.5 C0 8.17, 8.17 0, 24.5 0" stroke="#456680" stroke-width="1.4" fill="none"/></g><g transform="translate(379.073486328125 107) rotate(0 73.926513671875 10.924999999999997)"><text x="73.926513671875" y="16.055371093749997" font-family="Helvetica, Segoe UI Emoji" font-size="19px" fill="#edf5f4" text-anchor="middle" style="white-space: pre;" direction="ltr" dominant-baseline="alphabetic">Matched Proteins</text></g><g transform="translate(387.1875 141) rotate(0 65.8125 9.200000000000003)"><text x="65.8125" y="13.5203125" font-family="Helvetica, Segoe UI Emoji" font-size="16px" fill="#bdd2df" text-anchor="middle" style="white-space: pre;" direction="ltr" dominant-baseline="alphabetic">Extract sequences</text></g><g stroke-linecap="round"><g transform="translate(583.5 137) rotate(0 14 0)"><path d="M0 0 C9.71 0, 19.42 0, 28 0 M0 0 C8.91 0, 17.81 0, 28 0" stroke="#ebbe72" stroke-width="1.8" fill="none"/></g><g transform="translate(583.5 137) rotate(0 14 0)"><path d="M14.84 4.79 C19.41 3.13, 23.97 1.47, 28 0 M14.84 4.79 C19.03 3.27, 23.21 1.74, 28 0" stroke="#ebbe72" stroke-width="1.8" fill="none"/></g><g transform="translate(583.5 137) rotate(0 14 0)"><path d="M14.84 -4.79 C19.41 -3.13, 23.97 -1.47, 28 0 M14.84 -4.79 C19.03 -3.27, 23.21 -1.74, 28 0" stroke="#ebbe72" stroke-width="1.8" fill="none"/></g></g><mask/><g stroke-linecap="round" transform="translate(620 88) rotate(0 123 49)"><path d="M24.5 0 C82.92 0, 141.33 0, 221.5 0 C237.83 0, 246 8.17, 246 24.5 C246 43.62, 246 62.74, 246 73.5 C246 89.83, 237.83 98, 221.5 98 C159.32 98, 97.13 98, 24.5 98 C8.17 98, 0 89.83, 0 73.5 C0 55.35, 0 37.2, 0 24.5 C0 8.17, 8.17 0, 24.5 0" stroke="none" stroke-width="0" fill="#102b45"/><path d="M24.5 0 C84.29 0, 144.07 0, 221.5 0 M24.5 0 C98.32 0, 172.15 0, 221.5 0 M221.5 0 C237.83 0, 246 8.17, 246 24.5 M221.5 0 C237.83 0, 246 8.17, 246 24.5 M246 24.5 C246 42.03, 246 59.55, 246 73.5 M246 24.5 C246 41.39, 246 58.27, 246 73.5 M246 73.5 C246 89.83, 237.83 98, 221.5 98 M246 73.5 C246 89.83, 237.83 98, 221.5 98 M221.5 98 C172.77 98, 124.04 98, 24.5 98 M221.5 98 C172.4 98, 123.31 98, 24.5 98 M24.5 98 C8.17 98, 0 89.83, 0 73.5 M24.5 98 C8.17 98, 0 89.83, 0 73.5 M0 73.5 C0 62.48, 0 51.45, 0 24.5 M0 73.5 C0 56.07, 0 38.63, 0 24.5 M0 24.5 C0 8.17, 8.17 0, 24.5 0 M0 24.5 C0 8.17, 8.17 0, 24.5 0" stroke="#456680" stroke-width="1.4" fill="none"/></g><g transform="translate(643.7509765625 107) rotate(0 99.2490234375 10.924999999999997)"><text x="99.2490234375" y="16.055371093749997" font-family="Helvetica, Segoe UI Emoji" font-size="19px" fill="#edf5f4" text-anchor="middle" style="white-space: pre;" direction="ltr" dominant-baseline="alphabetic">HMMER / InterProScan</text></g><g transform="translate(678.51171875 141) rotate(0 64.48828125 9.200000000000003)"><text x="64.48828125" y="13.5203125" font-family="Helvetica, Segoe UI Emoji" font-size="16px" fill="#bdd2df" text-anchor="middle" style="white-space: pre;" direction="ltr" dominant-baseline="alphabetic">Annotate domains</text></g><g stroke-linecap="round"><g transform="translate(873.5 137) rotate(0 14 0)"><path d="M0 0 C10.52 0, 21.04 0, 28 0 M0 0 C5.93 0, 11.86 0, 28 0" stroke="#ebbe72" stroke-width="1.8" fill="none"/></g><g transform="translate(873.5 137) rotate(0 14 0)"><path d="M14.84 4.79 C19.79 2.99, 24.73 1.19, 28 0 M14.84 4.79 C17.63 3.77, 20.42 2.76, 28 0" stroke="#ebbe72" stroke-width="1.8" fill="none"/></g><g transform="translate(873.5 137) rotate(0 14 0)"><path d="M14.84 -4.79 C19.79 -2.99, 24.73 -1.19, 28 0 M14.84 -4.79 C17.63 -3.77, 20.42 -2.76, 28 0" stroke="#ebbe72" stroke-width="1.8" fill="none"/></g></g><mask/><g stroke-linecap="round" transform="translate(910 88) rotate(0 123 49)"><path d="M24.5 0 C100.93 0, 177.36 0, 221.5 0 C237.83 0, 246 8.17, 246 24.5 C246 34.82, 246 45.15, 246 73.5 C246 89.83, 237.83 98, 221.5 98 C162.61 98, 103.72 98, 24.5 98 C8.17 98, 0 89.83, 0 73.5 C0 54.37, 0 35.24, 0 24.5 C0 8.17, 8.17 0, 24.5 0" stroke="none" stroke-width="0" fill="#102b45"/><path d="M24.5 0 C101.46 0, 178.43 0, 221.5 0 M24.5 0 C90.76 0, 157.01 0, 221.5 0 M221.5 0 C237.83 0, 246 8.17, 246 24.5 M221.5 0 C237.83 0, 246 8.17, 246 24.5 M246 24.5 C246 37.66, 246 50.81, 246 73.5 M246 24.5 C246 43.72, 246 62.95, 246 73.5 M246 73.5 C246 89.83, 237.83 98, 221.5 98 M246 73.5 C246 89.83, 237.83 98, 221.5 98 M221.5 98 C150.12 98, 78.74 98, 24.5 98 M221.5 98 C160.25 98, 98.99 98, 24.5 98 M24.5 98 C8.17 98, 0 89.83, 0 73.5 M24.5 98 C8.17 98, 0 89.83, 0 73.5 M0 73.5 C0 56.81, 0 40.12, 0 24.5 M0 73.5 C0 54.53, 0 35.56, 0 24.5 M0 24.5 C0 8.17, 8.17 0, 24.5 0 M0 24.5 C0 8.17, 8.17 0, 24.5 0" stroke="#456680" stroke-width="1.4" fill="none"/></g><g transform="translate(1003.957275390625 107) rotate(0 29.042724609375 10.924999999999997)"><text x="29.042724609375" y="16.055371093749997" font-family="Helvetica, Segoe UI Emoji" font-size="19px" fill="#edf5f4" text-anchor="middle" style="white-space: pre;" direction="ltr" dominant-baseline="alphabetic">Quarto</text></g><g transform="translate(959.1875 141) rotate(0 73.8125 9.200000000000003)"><text x="73.8125" y="13.5203125" font-family="Helvetica, Segoe UI Emoji" font-size="16px" fill="#bdd2df" text-anchor="middle" style="white-space: pre;" direction="ltr" dominant-baseline="alphabetic">Render comparisons</text></g><g transform="translate(40 225) rotate(0 196.259765625 12.650000000000006)"><text x="0" y="18.5904296875" font-family="Helvetica, Segoe UI Emoji" font-size="22px" fill="#70cddd" text-anchor="start" style="white-space: pre;" direction="ltr" dominant-baseline="alphabetic">Structure Factory · Design And Evaluate</text></g><g stroke-linecap="round" transform="translate(40 273) rotate(0 123 49)"><path d="M24.5 0 C66.22 0, 107.94 0, 221.5 0 C237.83 0, 246 8.17, 246 24.5 C246 43.96, 246 63.42, 246 73.5 C246 89.83, 237.83 98, 221.5 98 C167.69 98, 113.88 98, 24.5 98 C8.17 98, 0 89.83, 0 73.5 C0 58.29, 0 43.08, 0 24.5 C0 8.17, 8.17 0, 24.5 0" stroke="none" stroke-width="0" fill="#153e53"/><path d="M24.5 0 C76.09 0, 127.69 0, 221.5 0 M24.5 0 C82.29 0, 140.08 0, 221.5 0 M221.5 0 C237.83 0, 246 8.17, 246 24.5 M221.5 0 C237.83 0, 246 8.17, 246 24.5 M246 24.5 C246 41.04, 246 57.58, 246 73.5 M246 24.5 C246 41.92, 246 59.33, 246 73.5 M246 73.5 C246 89.83, 237.83 98, 221.5 98 M246 73.5 C246 89.83, 237.83 98, 221.5 98 M221.5 98 C168.64 98, 115.78 98, 24.5 98 M221.5 98 C179.76 98, 138.01 98, 24.5 98 M24.5 98 C8.17 98, 0 89.83, 0 73.5 M24.5 98 C8.17 98, 0 89.83, 0 73.5 M0 73.5 C0 58.13, 0 42.76, 0 24.5 M0 73.5 C0 63.19, 0 52.88, 0 24.5 M0 24.5 C0 8.17, 8.17 0, 24.5 0 M0 24.5 C0 8.17, 8.17 0, 24.5 0" stroke="#70cddd" stroke-width="1.4" fill="none"/></g><g transform="translate(109.836181640625 292) rotate(0 53.163818359375 10.925000000000011)"><text x="53.163818359375" y="16.055371093749997" font-family="Helvetica, Segoe UI Emoji" font-size="19px" fill="#edf5f4" text-anchor="middle" style="white-space: pre;" direction="ltr" dominant-baseline="alphabetic">RFdiffusion3</text></g><g transform="translate(97.1796875 326) rotate(0 65.8203125 9.199999999999989)"><text x="65.8203125" y="13.5203125" font-family="Helvetica, Segoe UI Emoji" font-size="16px" fill="#bdd2df" text-anchor="middle" style="white-space: pre;" direction="ltr" dominant-baseline="alphabetic">Design backbones</text></g><g stroke-linecap="round"><g transform="translate(293.5 322) rotate(0 14 0)"><path d="M0 0 C9.42 0, 18.83 0, 28 0 M0 0 C6.56 0, 13.11 0, 28 0" stroke="#ebbe72" stroke-width="1.8" fill="none"/></g><g transform="translate(293.5 322) rotate(0 14 0)"><path d="M14.84 4.79 C19.27 3.18, 23.69 1.57, 28 0 M14.84 4.79 C17.92 3.67, 21 2.55, 28 0" stroke="#ebbe72" stroke-width="1.8" fill="none"/></g><g transform="translate(293.5 322) rotate(0 14 0)"><path d="M14.84 -4.79 C19.27 -3.18, 23.69 -1.57, 28 0 M14.84 -4.79 C17.92 -3.67, 21 -2.55, 28 0" stroke="#ebbe72" stroke-width="1.8" fill="none"/></g></g><mask/><g stroke-linecap="round" transform="translate(330 273) rotate(0 123 49)"><path d="M24.5 0 C89.1 0, 153.7 0, 221.5 0 C237.83 0, 246 8.17, 246 24.5 C246 42.02, 246 59.53, 246 73.5 C246 89.83, 237.83 98, 221.5 98 C157.51 98, 93.51 98, 24.5 98 C8.17 98, 0 89.83, 0 73.5 C0 59.44, 0 45.39, 0 24.5 C0 8.17, 8.17 0, 24.5 0" stroke="none" stroke-width="0" fill="#102b45"/><path d="M24.5 0 C77.86 0, 131.22 0, 221.5 0 M24.5 0 C87.42 0, 150.35 0, 221.5 0 M221.5 0 C237.83 0, 246 8.17, 246 24.5 M221.5 0 C237.83 0, 246 8.17, 246 24.5 M246 24.5 C246 36.51, 246 48.52, 246 73.5 M246 24.5 C246 41.94, 246 59.38, 246 73.5 M246 73.5 C246 89.83, 237.83 98, 221.5 98 M246 73.5 C246 89.83, 237.83 98, 221.5 98 M221.5 98 C177.73 98, 133.96 98, 24.5 98 M221.5 98 C167.81 98, 114.11 98, 24.5 98 M24.5 98 C8.17 98, 0 89.83, 0 73.5 M24.5 98 C8.17 98, 0 89.83, 0 73.5 M0 73.5 C0 62.35, 0 51.2, 0 24.5 M0 73.5 C0 59.06, 0 44.62, 0 24.5 M0 24.5 C0 8.17, 8.17 0, 24.5 0 M0 24.5 C0 8.17, 8.17 0, 24.5 0" stroke="#456680" stroke-width="1.4" fill="none"/></g><g transform="translate(394.928466796875 292) rotate(0 58.071533203125 10.925000000000011)"><text x="58.071533203125" y="16.055371093749997" font-family="Helvetica, Segoe UI Emoji" font-size="19px" fill="#edf5f4" text-anchor="middle" style="white-space: pre;" direction="ltr" dominant-baseline="alphabetic">ProteinMPNN</text></g><g transform="translate(387.1796875 326) rotate(0 65.8203125 9.199999999999989)"><text x="65.8203125" y="13.5203125" font-family="Helvetica, Segoe UI Emoji" font-size="16px" fill="#bdd2df" text-anchor="middle" style="white-space: pre;" direction="ltr" dominant-baseline="alphabetic">Design sequences</text></g><g stroke-linecap="round"><g transform="translate(583.5 322) rotate(0 14 0)"><path d="M0 0 C8.21 0, 16.43 0, 28 0 M0 0 C10.01 0, 20.03 0, 28 0" stroke="#ebbe72" stroke-width="1.8" fill="none"/></g><g transform="translate(583.5 322) rotate(0 14 0)"><path d="M14.84 4.79 C18.7 3.38, 22.56 1.98, 28 0 M14.84 4.79 C19.55 3.08, 24.26 1.36, 28 0" stroke="#ebbe72" stroke-width="1.8" fill="none"/></g><g transform="translate(583.5 322) rotate(0 14 0)"><path d="M14.84 -4.79 C18.7 -3.38, 22.56 -1.98, 28 0 M14.84 -4.79 C19.55 -3.08, 24.26 -1.36, 28 0" stroke="#ebbe72" stroke-width="1.8" fill="none"/></g></g><mask/><g stroke-linecap="round" transform="translate(620 273) rotate(0 123 49)"><path d="M24.5 0 C84.75 0, 145 0, 221.5 0 C237.83 0, 246 8.17, 246 24.5 C246 41.18, 246 57.86, 246 73.5 C246 89.83, 237.83 98, 221.5 98 C172.25 98, 123.01 98, 24.5 98 C8.17 98, 0 89.83, 0 73.5 C0 62.88, 0 52.26, 0 24.5 C0 8.17, 8.17 0, 24.5 0" stroke="none" stroke-width="0" fill="#102b45"/><path d="M24.5 0 C99.51 0, 174.52 0, 221.5 0 M24.5 0 C89.26 0, 154.01 0, 221.5 0 M221.5 0 C237.83 0, 246 8.17, 246 24.5 M221.5 0 C237.83 0, 246 8.17, 246 24.5 M246 24.5 C246 43.16, 246 61.82, 246 73.5 M246 24.5 C246 37.07, 246 49.64, 246 73.5 M246 73.5 C246 89.83, 237.83 98, 221.5 98 M246 73.5 C246 89.83, 237.83 98, 221.5 98 M221.5 98 C164.34 98, 107.18 98, 24.5 98 M221.5 98 C171.46 98, 121.42 98, 24.5 98 M24.5 98 C8.17 98, 0 89.83, 0 73.5 M24.5 98 C8.17 98, 0 89.83, 0 73.5 M0 73.5 C0 60.02, 0 46.54, 0 24.5 M0 73.5 C0 61.28, 0 49.07, 0 24.5 M0 24.5 C0 8.17, 8.17 0, 24.5 0 M0 24.5 C0 8.17, 8.17 0, 24.5 0" stroke="#456680" stroke-width="1.4" fill="none"/></g><g transform="translate(685.976806640625 292) rotate(0 57.023193359375 10.925000000000011)"><text x="57.023193359375" y="16.055371093749997" font-family="Helvetica, Segoe UI Emoji" font-size="19px" fill="#edf5f4" text-anchor="middle" style="white-space: pre;" direction="ltr" dominant-baseline="alphabetic">Boltz / Chai-1</text></g><g transform="translate(677.640625 326) rotate(0 65.359375 9.199999999999989)"><text x="65.359375" y="13.5203125" font-family="Helvetica, Segoe UI Emoji" font-size="16px" fill="#bdd2df" text-anchor="middle" style="white-space: pre;" direction="ltr" dominant-baseline="alphabetic">Predict complexes</text></g><g stroke-linecap="round"><g transform="translate(873.5 322) rotate(0 14 0)"><path d="M0 0 C8.94 0, 17.89 0, 28 0 M0 0 C7.52 0, 15.04 0, 28 0" stroke="#ebbe72" stroke-width="1.8" fill="none"/></g><g transform="translate(873.5 322) rotate(0 14 0)"><path d="M14.84 4.79 C19.05 3.26, 23.25 1.73, 28 0 M14.84 4.79 C18.38 3.5, 21.91 2.22, 28 0" stroke="#ebbe72" stroke-width="1.8" fill="none"/></g><g transform="translate(873.5 322) rotate(0 14 0)"><path d="M14.84 -4.79 C19.05 -3.26, 23.25 -1.73, 28 0 M14.84 -4.79 C18.38 -3.5, 21.91 -2.22, 28 0" stroke="#ebbe72" stroke-width="1.8" fill="none"/></g></g><mask/><g stroke-linecap="round" transform="translate(910 273) rotate(0 123 49)"><path d="M24.5 0 C88.37 0, 152.25 0, 221.5 0 C237.83 0, 246 8.17, 246 24.5 C246 36.02, 246 47.54, 246 73.5 C246 89.83, 237.83 98, 221.5 98 C151.79 98, 82.07 98, 24.5 98 C8.17 98, 0 89.83, 0 73.5 C0 56.96, 0 40.41, 0 24.5 C0 8.17, 8.17 0, 24.5 0" stroke="none" stroke-width="0" fill="#102b45"/><path d="M24.5 0 C96.22 0, 167.94 0, 221.5 0 M24.5 0 C78.89 0, 133.27 0, 221.5 0 M221.5 0 C237.83 0, 246 8.17, 246 24.5 M221.5 0 C237.83 0, 246 8.17, 246 24.5 M246 24.5 C246 36.45, 246 48.41, 246 73.5 M246 24.5 C246 37.26, 246 50.02, 246 73.5 M246 73.5 C246 89.83, 237.83 98, 221.5 98 M246 73.5 C246 89.83, 237.83 98, 221.5 98 M221.5 98 C152.96 98, 84.42 98, 24.5 98 M221.5 98 C150.98 98, 80.47 98, 24.5 98 M24.5 98 C8.17 98, 0 89.83, 0 73.5 M24.5 98 C8.17 98, 0 89.83, 0 73.5 M0 73.5 C0 55.94, 0 38.37, 0 24.5 M0 73.5 C0 62.5, 0 51.5, 0 24.5 M0 24.5 C0 8.17, 8.17 0, 24.5 0 M0 24.5 C0 8.17, 8.17 0, 24.5 0" stroke="#456680" stroke-width="1.4" fill="none"/></g><g transform="translate(990.764892578125 292) rotate(0 42.235107421875 10.925000000000011)"><text x="42.235107421875" y="16.055371093749997" font-family="Helvetica, Segoe UI Emoji" font-size="19px" fill="#edf5f4" text-anchor="middle" style="white-space: pre;" direction="ltr" dominant-baseline="alphabetic">ChimeraX</text></g><g transform="translate(974.96484375 326) rotate(0 58.03515625 9.199999999999989)"><text x="58.03515625" y="13.5203125" font-family="Helvetica, Segoe UI Emoji" font-size="16px" fill="#bdd2df" text-anchor="middle" style="white-space: pre;" direction="ltr" dominant-baseline="alphabetic">Inspect + render</text></g><g transform="translate(40 410) rotate(0 176.06982421875 12.650000000000006)"><text x="0" y="18.5904296875" font-family="Helvetica, Segoe UI Emoji" font-size="22px" fill="#70cddd" text-anchor="start" style="white-space: pre;" direction="ltr" dominant-baseline="alphabetic">Ferm DoE · Choose The Next Batch</text></g><g stroke-linecap="round" transform="translate(40 458) rotate(0 123 49)"><path d="M24.5 0 C97.64 0, 170.79 0, 221.5 0 C237.83 0, 246 8.17, 246 24.5 C246 42.7, 246 60.9, 246 73.5 C246 89.83, 237.83 98, 221.5 98 C172.01 98, 122.51 98, 24.5 98 C8.17 98, 0 89.83, 0 73.5 C0 62.33, 0 51.16, 0 24.5 C0 8.17, 8.17 0, 24.5 0" stroke="none" stroke-width="0" fill="#153e53"/><path d="M24.5 0 C64.42 0, 104.35 0, 221.5 0 M24.5 0 C94.82 0, 165.15 0, 221.5 0 M221.5 0 C237.83 0, 246 8.17, 246 24.5 M221.5 0 C237.83 0, 246 8.17, 246 24.5 M246 24.5 C246 36.4, 246 48.29, 246 73.5 M246 24.5 C246 39.77, 246 55.04, 246 73.5 M246 73.5 C246 89.83, 237.83 98, 221.5 98 M246 73.5 C246 89.83, 237.83 98, 221.5 98 M221.5 98 C166.25 98, 110.99 98, 24.5 98 M221.5 98 C176.83 98, 132.17 98, 24.5 98 M24.5 98 C8.17 98, 0 89.83, 0 73.5 M24.5 98 C8.17 98, 0 89.83, 0 73.5 M0 73.5 C0 59.33, 0 45.15, 0 24.5 M0 73.5 C0 58.26, 0 43.02, 0 24.5 M0 24.5 C0 8.17, 8.17 0, 24.5 0 M0 24.5 C0 8.17, 8.17 0, 24.5 0" stroke="#70cddd" stroke-width="1.4" fill="none"/></g><g transform="translate(130.255615234375 477) rotate(0 32.744384765625 10.925000000000011)"><text x="32.744384765625" y="16.055371093749997" font-family="Helvetica, Segoe UI Emoji" font-size="19px" fill="#edf5f4" text-anchor="middle" style="white-space: pre;" direction="ltr" dominant-baseline="alphabetic">validate</text></g><g transform="translate(116.75390625 511) rotate(0 46.24609375 9.199999999999989)"><text x="46.24609375" y="13.5203125" font-family="Helvetica, Segoe UI Emoji" font-size="16px" fill="#bdd2df" text-anchor="middle" style="white-space: pre;" direction="ltr" dominant-baseline="alphabetic">Check inputs</text></g><g stroke-linecap="round"><g transform="translate(293.5 507) rotate(0 14 0)"><path d="M0 0 C7.73 0, 15.46 0, 28 0 M0 0 C6.86 0, 13.72 0, 28 0" stroke="#ebbe72" stroke-width="1.8" fill="none"/></g><g transform="translate(293.5 507) rotate(0 14 0)"><path d="M14.84 4.79 C18.48 3.47, 22.11 2.14, 28 0 M14.84 4.79 C18.07 3.61, 21.29 2.44, 28 0" stroke="#ebbe72" stroke-width="1.8" fill="none"/></g><g transform="translate(293.5 507) rotate(0 14 0)"><path d="M14.84 -4.79 C18.48 -3.47, 22.11 -2.14, 28 0 M14.84 -4.79 C18.07 -3.61, 21.29 -2.44, 28 0" stroke="#ebbe72" stroke-width="1.8" fill="none"/></g></g><mask/><g stroke-linecap="round" transform="translate(330 458) rotate(0 123 49)"><path d="M24.5 0 C72.66 0, 120.83 0, 221.5 0 C237.83 0, 246 8.17, 246 24.5 C246 40.17, 246 55.83, 246 73.5 C246 89.83, 237.83 98, 221.5 98 C169.07 98, 116.64 98, 24.5 98 C8.17 98, 0 89.83, 0 73.5 C0 63.38, 0 53.27, 0 24.5 C0 8.17, 8.17 0, 24.5 0" stroke="none" stroke-width="0" fill="#102b45"/><path d="M24.5 0 C81.2 0, 137.9 0, 221.5 0 M24.5 0 C65.37 0, 106.25 0, 221.5 0 M221.5 0 C237.83 0, 246 8.17, 246 24.5 M221.5 0 C237.83 0, 246 8.17, 246 24.5 M246 24.5 C246 38.96, 246 53.43, 246 73.5 M246 24.5 C246 38.93, 246 53.36, 246 73.5 M246 73.5 C246 89.83, 237.83 98, 221.5 98 M246 73.5 C246 89.83, 237.83 98, 221.5 98 M221.5 98 C146.21 98, 70.92 98, 24.5 98 M221.5 98 C153.87 98, 86.24 98, 24.5 98 M24.5 98 C8.17 98, 0 89.83, 0 73.5 M24.5 98 C8.17 98, 0 89.83, 0 73.5 M0 73.5 C0 54.47, 0 35.44, 0 24.5 M0 73.5 C0 56.82, 0 40.15, 0 24.5 M0 24.5 C0 8.17, 8.17 0, 24.5 0 M0 24.5 C0 8.17, 8.17 0, 24.5 0" stroke="#456680" stroke-width="1.4" fill="none"/></g><g transform="translate(384.33837890625 477) rotate(0 68.66162109375 10.925000000000011)"><text x="68.66162109375" y="16.055371093749997" font-family="Helvetica, Segoe UI Emoji" font-size="19px" fill="#edf5f4" text-anchor="middle" style="white-space: pre;" direction="ltr" dominant-baseline="alphabetic">generate-design</text></g><g transform="translate(377.40625 511) rotate(0 75.59375 9.199999999999989)"><text x="75.59375" y="13.5203125" font-family="Helvetica, Segoe UI Emoji" font-size="16px" fill="#bdd2df" text-anchor="middle" style="white-space: pre;" direction="ltr" dominant-baseline="alphabetic">Propose experiments</text></g><g stroke-linecap="round"><g transform="translate(583.5 507) rotate(0 14 0)"><path d="M0 0 C10 0, 19.99 0, 28 0 M0 0 C10.66 0, 21.33 0, 28 0" stroke="#ebbe72" stroke-width="1.8" fill="none"/></g><g transform="translate(583.5 507) rotate(0 14 0)"><path d="M14.84 4.79 C19.54 3.08, 24.24 1.37, 28 0 M14.84 4.79 C19.85 2.96, 24.87 1.14, 28 0" stroke="#ebbe72" stroke-width="1.8" fill="none"/></g><g transform="translate(583.5 507) rotate(0 14 0)"><path d="M14.84 -4.79 C19.54 -3.08, 24.24 -1.37, 28 0 M14.84 -4.79 C19.85 -2.96, 24.87 -1.14, 28 0" stroke="#ebbe72" stroke-width="1.8" fill="none"/></g></g><mask/><g stroke-linecap="round" transform="translate(620 458) rotate(0 123 49)"><path d="M24.5 0 C93.59 0, 162.68 0, 221.5 0 C237.83 0, 246 8.17, 246 24.5 C246 38.77, 246 53.03, 246 73.5 C246 89.83, 237.83 98, 221.5 98 C175.8 98, 130.09 98, 24.5 98 C8.17 98, 0 89.83, 0 73.5 C0 57.2, 0 40.89, 0 24.5 C0 8.17, 8.17 0, 24.5 0" stroke="none" stroke-width="0" fill="#102b45"/><path d="M24.5 0 C67.87 0, 111.25 0, 221.5 0 M24.5 0 C84.45 0, 144.4 0, 221.5 0 M221.5 0 C237.83 0, 246 8.17, 246 24.5 M221.5 0 C237.83 0, 246 8.17, 246 24.5 M246 24.5 C246 35.69, 246 46.87, 246 73.5 M246 24.5 C246 35.98, 246 47.46, 246 73.5 M246 73.5 C246 89.83, 237.83 98, 221.5 98 M246 73.5 C246 89.83, 237.83 98, 221.5 98 M221.5 98 C151.21 98, 80.91 98, 24.5 98 M221.5 98 C175.95 98, 130.4 98, 24.5 98 M24.5 98 C8.17 98, 0 89.83, 0 73.5 M24.5 98 C8.17 98, 0 89.83, 0 73.5 M0 73.5 C0 59.48, 0 45.45, 0 24.5 M0 73.5 C0 59.57, 0 45.63, 0 24.5 M0 24.5 C0 8.17, 8.17 0, 24.5 0 M0 24.5 C0 8.17, 8.17 0, 24.5 0" stroke="#456680" stroke-width="1.4" fill="none"/></g><g transform="translate(710.255615234375 477) rotate(0 32.744384765625 10.925000000000011)"><text x="32.744384765625" y="16.055371093749997" font-family="Helvetica, Segoe UI Emoji" font-size="19px" fill="#edf5f4" text-anchor="middle" style="white-space: pre;" direction="ltr" dominant-baseline="alphabetic">analyze</text></g><g transform="translate(670.96484375 511) rotate(0 72.03515625 9.199999999999989)"><text x="72.03515625" y="13.5203125" font-family="Helvetica, Segoe UI Emoji" font-size="16px" fill="#bdd2df" text-anchor="middle" style="white-space: pre;" direction="ltr" dominant-baseline="alphabetic">Use supplied results</text></g><g stroke-linecap="round"><g transform="translate(873.5 507) rotate(0 14 0)"><path d="M0 0 C5.81 0, 11.62 0, 28 0 M0 0 C6.83 0, 13.66 0, 28 0" stroke="#ebbe72" stroke-width="1.8" fill="none"/></g><g transform="translate(873.5 507) rotate(0 14 0)"><path d="M14.84 4.79 C17.57 3.79, 20.3 2.8, 28 0 M14.84 4.79 C18.05 3.62, 21.26 2.45, 28 0" stroke="#ebbe72" stroke-width="1.8" fill="none"/></g><g transform="translate(873.5 507) rotate(0 14 0)"><path d="M14.84 -4.79 C17.57 -3.79, 20.3 -2.8, 28 0 M14.84 -4.79 C18.05 -3.62, 21.26 -2.45, 28 0" stroke="#ebbe72" stroke-width="1.8" fill="none"/></g></g><mask/><g stroke-linecap="round" transform="translate(910 458) rotate(0 123 49)"><path d="M24.5 0 C84.83 0, 145.16 0, 221.5 0 C237.83 0, 246 8.17, 246 24.5 C246 41.04, 246 57.57, 246 73.5 C246 89.83, 237.83 98, 221.5 98 C164.04 98, 106.58 98, 24.5 98 C8.17 98, 0 89.83, 0 73.5 C0 63.36, 0 53.22, 0 24.5 C0 8.17, 8.17 0, 24.5 0" stroke="none" stroke-width="0" fill="#102b45"/><path d="M24.5 0 C65.82 0, 107.13 0, 221.5 0 M24.5 0 C96.37 0, 168.23 0, 221.5 0 M221.5 0 C237.83 0, 246 8.17, 246 24.5 M221.5 0 C237.83 0, 246 8.17, 246 24.5 M246 24.5 C246 43.06, 246 61.62, 246 73.5 M246 24.5 C246 39.04, 246 53.58, 246 73.5 M246 73.5 C246 89.83, 237.83 98, 221.5 98 M246 73.5 C246 89.83, 237.83 98, 221.5 98 M221.5 98 C158.95 98, 96.4 98, 24.5 98 M221.5 98 C171.32 98, 121.13 98, 24.5 98 M24.5 98 C8.17 98, 0 89.83, 0 73.5 M24.5 98 C8.17 98, 0 89.83, 0 73.5 M0 73.5 C0 57.7, 0 41.9, 0 24.5 M0 73.5 C0 60.97, 0 48.43, 0 24.5 M0 24.5 C0 8.17, 8.17 0, 24.5 0 M0 24.5 C0 8.17, 8.17 0, 24.5 0" stroke="#456680" stroke-width="1.4" fill="none"/></g><g transform="translate(984.41455078125 477) rotate(0 48.58544921875 10.925000000000011)"><text x="48.58544921875" y="16.055371093749997" font-family="Helvetica, Segoe UI Emoji" font-size="19px" fill="#edf5f4" text-anchor="middle" style="white-space: pre;" direction="ltr" dominant-baseline="alphabetic">plan-wave2</text></g><g transform="translate(952.9453125 511) rotate(0 80.0546875 9.199999999999989)"><text x="80.0546875" y="13.5203125" font-family="Helvetica, Segoe UI Emoji" font-size="16px" fill="#bdd2df" text-anchor="middle" style="white-space: pre;" direction="ltr" dominant-baseline="alphabetic">Choose the next batch</text></g><g transform="translate(40 573) rotate(0 176.5390625 9.199999999999989)"><text x="0" y="13.5203125" font-family="Helvetica, Segoe UI Emoji" font-size="16px" fill="#bdd2df" text-anchor="start" style="white-space: pre;" direction="ltr" dominant-baseline="alphabetic">Analysis uses supplied data; lab work is separate.</text></g></svg>
